<?xml version="1.0" encoding="UTF-8" standalone="no"?>
<!DOCTYPE svg PUBLIC "-//W3C//DTD SVG 1.1//EN"
 "http://www.w3.org/Graphics/SVG/1.1/DTD/svg11.dtd">
<!-- Generated by graphviz version 12.2.1 (20241206.2353)
 -->
<!-- Title: G Pages: 1 -->
<svg width="550pt" height="302pt"
 viewBox="0.00 0.00 549.50 301.75" xmlns="http://www.w3.org/2000/svg" xmlns:xlink="http://www.w3.org/1999/xlink">
<g id="graph0" class="graph" transform="scale(1 1) rotate(0) translate(4 297.75)">
<title>G</title>
<polygon fill="#f5f5f5" stroke="none" points="-4,4 -4,-297.75 545.5,-297.75 545.5,4 -4,4"/>
<!-- Yazarlar -->
<g id="node1" class="node">
<title>Yazarlar</title>
<polygon fill="#e8f5e9" stroke="black" points="250.75,-234.5 250.75,-293.25 347.75,-293.25 347.75,-234.5 250.75,-234.5"/>
<text text-anchor="middle" x="299.25" y="-277.85" font-family="Arial" font-size="12.00">Yazarlar</text>
<polyline fill="none" stroke="black" points="250.75,-271 347.75,-271"/>
<text text-anchor="middle" x="299.25" y="-255.6" font-family="Arial" font-size="12.00">&#39;</text>
<text text-anchor="middle" x="299.25" y="-241.35" font-family="Arial" font-size="12.00">&#39;.join(attributes)</text>
</g>
<!-- Yayinevleri -->
<g id="node2" class="node">
<title>Yayinevleri</title>
<polygon fill="#e8f5e9" stroke="black" points="444.5,-234.5 444.5,-293.25 541.5,-293.25 541.5,-234.5 444.5,-234.5"/>
<text text-anchor="middle" x="493" y="-277.85" font-family="Arial" font-size="12.00">Yayinevleri</text>
<polyline fill="none" stroke="black" points="444.5,-271 541.5,-271"/>
<text text-anchor="middle" x="493" y="-255.6" font-family="Arial" font-size="12.00">&#39;</text>
<text text-anchor="middle" x="493" y="-241.35" font-family="Arial" font-size="12.00">&#39;.join(attributes)</text>
</g>
<!-- Kategoriler -->
<g id="node3" class="node">
<title>Kategoriler</title>
<polygon fill="#e8f5e9" stroke="black" points="444.5,-156.5 444.5,-215.25 541.5,-215.25 541.5,-156.5 444.5,-156.5"/>
<text text-anchor="middle" x="493" y="-199.85" font-family="Arial" font-size="12.00">Kategoriler</text>
<polyline fill="none" stroke="black" points="444.5,-193 541.5,-193"/>
<text text-anchor="middle" x="493" y="-177.6" font-family="Arial" font-size="12.00">&#39;</text>
<text text-anchor="middle" x="493" y="-163.35" font-family="Arial" font-size="12.00">&#39;.join(attributes)</text>
</g>
<!-- Kitaplar -->
<g id="node4" class="node">
<title>Kitaplar</title>
<polygon fill="#ffecb3" stroke="black" points="250.75,-156.5 250.75,-215.25 347.75,-215.25 347.75,-156.5 250.75,-156.5"/>
<text text-anchor="middle" x="299.25" y="-199.85" font-family="Arial" font-size="12.00">Kitaplar</text>
<polyline fill="none" stroke="black" points="250.75,-193 347.75,-193"/>
<text text-anchor="middle" x="299.25" y="-177.6" font-family="Arial" font-size="12.00">&#39;</text>
<text text-anchor="middle" x="299.25" y="-163.35" font-family="Arial" font-size="12.00">&#39;.join(attributes)</text>
</g>
<!-- Kitaplar&#45;&gt;Yayinevleri -->
<g id="edge2" class="edge">
<title>Kitaplar&#45;&gt;Yayinevleri</title>
<path fill="none" stroke="#2196f3" stroke-width="1.5" d="M348.14,-205.36C373.77,-215.78 405.55,-228.71 432.72,-239.76"/>
<polygon fill="#2196f3" stroke="#2196f3" stroke-width="1.5" points="431.37,-242.99 441.95,-243.52 434.01,-236.51 431.37,-242.99"/>
<text text-anchor="middle" x="396.12" y="-238.92" font-family="Arial" font-size="10.00"> &#160;YayineviID &#160;</text>
</g>
<!-- Kitaplar&#45;&gt;Kategoriler -->
<g id="edge1" class="edge">
<title>Kitaplar&#45;&gt;Kategoriler</title>
<path fill="none" stroke="#2196f3" stroke-width="1.5" d="M348.14,-185.88C373.54,-185.88 404.98,-185.88 431.99,-185.88"/>
<polygon fill="#2196f3" stroke="#2196f3" stroke-width="1.5" points="431.78,-189.38 441.78,-185.88 431.78,-182.38 431.78,-189.38"/>
<text text-anchor="middle" x="396.12" y="-188.38" font-family="Arial" font-size="10.00"> &#160;KategoriID &#160;</text>
</g>
<!-- Musteriler -->
<g id="node5" class="node">
<title>Musteriler</title>
<polygon fill="#e1bee7" stroke="black" points="444.5,-78.5 444.5,-137.25 541.5,-137.25 541.5,-78.5 444.5,-78.5"/>
<text text-anchor="middle" x="493" y="-121.85" font-family="Arial" font-size="12.00">Musteriler</text>
<polyline fill="none" stroke="black" points="444.5,-115 541.5,-115"/>
<text text-anchor="middle" x="493" y="-99.6" font-family="Arial" font-size="12.00">&#39;</text>
<text text-anchor="middle" x="493" y="-85.35" font-family="Arial" font-size="12.00">&#39;.join(attributes)</text>
</g>
<!-- Personeller -->
<g id="node6" class="node">
<title>Personeller</title>
<polygon fill="#e1bee7" stroke="black" points="444.5,-0.5 444.5,-59.25 541.5,-59.25 541.5,-0.5 444.5,-0.5"/>
<text text-anchor="middle" x="493" y="-43.85" font-family="Arial" font-size="12.00">Personeller</text>
<polyline fill="none" stroke="black" points="444.5,-37 541.5,-37"/>
<text text-anchor="middle" x="493" y="-21.6" font-family="Arial" font-size="12.00">&#39;</text>
<text text-anchor="middle" x="493" y="-7.35" font-family="Arial" font-size="12.00">&#39;.join(attributes)</text>
</g>
<!-- Satislar -->
<g id="node7" class="node">
<title>Satislar</title>
<polygon fill="#ffcdd2" stroke="black" points="250.75,-78.5 250.75,-137.25 347.75,-137.25 347.75,-78.5 250.75,-78.5"/>
<text text-anchor="middle" x="299.25" y="-121.85" font-family="Arial" font-size="12.00">Satislar</text>
<polyline fill="none" stroke="black" points="250.75,-115 347.75,-115"/>
<text text-anchor="middle" x="299.25" y="-99.6" font-family="Arial" font-size="12.00">&#39;</text>
<text text-anchor="middle" x="299.25" y="-85.35" font-family="Arial" font-size="12.00">&#39;.join(attributes)</text>
</g>
<!-- Satislar&#45;&gt;Musteriler -->
<g id="edge3" class="edge">
<title>Satislar&#45;&gt;Musteriler</title>
<path fill="none" stroke="#2196f3" stroke-width="1.5" d="M348.14,-107.88C373.54,-107.88 404.98,-107.88 431.99,-107.88"/>
<polygon fill="#2196f3" stroke="#2196f3" stroke-width="1.5" points="431.78,-111.38 441.78,-107.88 431.78,-104.38 431.78,-111.38"/>
<text text-anchor="middle" x="396.12" y="-110.38" font-family="Arial" font-size="10.00"> &#160;MusteriID &#160;</text>
</g>
<!-- Satislar&#45;&gt;Personeller -->
<g id="edge4" class="edge">
<title>Satislar&#45;&gt;Personeller</title>
<path fill="none" stroke="#2196f3" stroke-width="1.5" d="M348.14,-88.39C373.77,-77.97 405.55,-65.04 432.72,-53.99"/>
<polygon fill="#2196f3" stroke="#2196f3" stroke-width="1.5" points="434.01,-57.24 441.95,-50.23 431.37,-50.76 434.01,-57.24"/>
<text text-anchor="middle" x="396.12" y="-82.92" font-family="Arial" font-size="10.00"> &#160;PersonelID &#160;</text>
</g>
<!-- SatisDetaylari -->
<g id="node8" class="node">
<title>SatisDetaylari</title>
<polygon fill="#ffcdd2" stroke="black" points="35.62,-113.5 35.62,-172.25 132.62,-172.25 132.62,-113.5 35.62,-113.5"/>
<text text-anchor="middle" x="84.12" y="-156.85" font-family="Arial" font-size="12.00">SatisDetaylari</text>
<polyline fill="none" stroke="black" points="35.62,-150 132.62,-150"/>
<text text-anchor="middle" x="84.12" y="-134.6" font-family="Arial" font-size="12.00">&#39;</text>
<text text-anchor="middle" x="84.12" y="-120.35" font-family="Arial" font-size="12.00">&#39;.join(attributes)</text>
</g>
<!-- SatisDetaylari&#45;&gt;Kitaplar -->
<g id="edge5" class="edge">
<title>SatisDetaylari&#45;&gt;Kitaplar</title>
<path fill="none" stroke="#2196f3" stroke-width="1.5" d="M133.05,-150.99C176.16,-158.29 232.75,-167.88 232.75,-167.88 232.75,-167.88 235.01,-168.5 238.7,-169.51"/>
<polygon fill="#2196f3" stroke="#2196f3" stroke-width="1.5" points="237.54,-172.82 248.11,-172.1 239.4,-166.07 237.54,-172.82"/>
<text text-anchor="middle" x="209.5" y="-170.38" font-family="Arial" font-size="10.00"> &#160;KitapID &#160;</text>
</g>
<!-- SatisDetaylari&#45;&gt;Satislar -->
<g id="edge6" class="edge">
<title>SatisDetaylari&#45;&gt;Satislar</title>
<path fill="none" stroke="#2196f3" stroke-width="1.5" d="M132.95,-135.02C164.22,-129.89 205.28,-123.14 238.66,-117.66"/>
<polygon fill="#2196f3" stroke="#2196f3" stroke-width="1.5" points="239.04,-121.15 248.34,-116.07 237.9,-114.24 239.04,-121.15"/>
<text text-anchor="middle" x="209.5" y="-127.88" font-family="Arial" font-size="10.00"> &#160;SatisID &#160;</text>
</g>
<!-- KitapYazarlari -->
<g id="node9" class="node">
<title>KitapYazarlari</title>
<polygon fill="#fff9c4" stroke="black" points="0,-217.5 0,-276.25 168.25,-276.25 168.25,-217.5 0,-217.5"/>
<text text-anchor="middle" x="84.12" y="-260.85" font-family="Arial" font-size="12.00">KitapYazarlari</text>
<polyline fill="none" stroke="black" points="0,-254 168.25,-254"/>
<text text-anchor="middle" x="84.12" y="-238.6" font-family="Arial" font-size="12.00">KitapID : INTEGER [PK, FK]</text>
<text text-anchor="middle" x="84.12" y="-224.35" font-family="Arial" font-size="12.00">YazarID : INTEGER [PK, FK]</text>
</g>
<!-- KitapYazarlari&#45;&gt;Yazarlar -->
<g id="edge8" class="edge">
<title>KitapYazarlari&#45;&gt;Yazarlar</title>
<path fill="none" stroke="#4caf50" stroke-width="1.5" stroke-dasharray="5,2" d="M168.75,-253.55C192.06,-255.4 216.9,-257.39 238.53,-259.11"/>
<polygon fill="#4caf50" stroke="#4caf50" stroke-width="1.5" points="238.02,-262.58 248.26,-259.89 238.57,-255.6 238.02,-262.58"/>
<text text-anchor="middle" x="209.5" y="-260.88" font-family="Arial" font-size="10.00"> &#160;YazarID &#160;</text>
</g>
<!-- KitapYazarlari&#45;&gt;Kitaplar -->
<g id="edge7" class="edge">
<title>KitapYazarlari&#45;&gt;Kitaplar</title>
<path fill="none" stroke="#4caf50" stroke-width="1.5" stroke-dasharray="5,2" d="M168.75,-222.94C192.16,-216.24 217.13,-209.09 238.84,-202.88"/>
<polygon fill="#4caf50" stroke="#4caf50" stroke-width="1.5" points="239.69,-206.28 248.34,-200.16 237.77,-199.55 239.69,-206.28"/>
<text text-anchor="middle" x="209.5" y="-218.88" font-family="Arial" font-size="10.00"> &#160;KitapID &#160;</text>
</g>
</g>
</svg>
